<mxfile host="app.diagrams.net" agent="Mozilla/5.0 (Windows NT 10.0; Win64; x64) AppleWebKit/537.36 (KHTML, like Gecko) Chrome/135.0.0.0 Safari/537.36" version="26.2.13">
  <diagram name="Page-1" id="Sved6Ocbhai-bgmkrqRr">
    <mxGraphModel dx="1251" dy="821" grid="1" gridSize="10" guides="1" tooltips="1" connect="1" arrows="1" fold="1" page="1" pageScale="1" pageWidth="850" pageHeight="1100" math="0" shadow="0">
      <root>
        <mxCell id="0" />
        <mxCell id="1" parent="0" />
        <mxCell id="AG6RHLCeBT5gF2s8d5ap-3" style="edgeStyle=orthogonalEdgeStyle;rounded=0;orthogonalLoop=1;jettySize=auto;html=1;exitX=1;exitY=0.5;exitDx=0;exitDy=0;entryX=0;entryY=0.5;entryDx=0;entryDy=0;" edge="1" parent="1" source="AG6RHLCeBT5gF2s8d5ap-1" target="AG6RHLCeBT5gF2s8d5ap-2">
          <mxGeometry relative="1" as="geometry" />
        </mxCell>
        <mxCell id="AG6RHLCeBT5gF2s8d5ap-1" value="Tech Scouting" style="rounded=0;whiteSpace=wrap;html=1;" vertex="1" parent="1">
          <mxGeometry x="110" y="230" width="120" height="60" as="geometry" />
        </mxCell>
        <mxCell id="AG6RHLCeBT5gF2s8d5ap-9" style="edgeStyle=orthogonalEdgeStyle;rounded=0;orthogonalLoop=1;jettySize=auto;html=1;exitX=0.5;exitY=0;exitDx=0;exitDy=0;entryX=0;entryY=0;entryDx=0;entryDy=0;" edge="1" parent="1" source="AG6RHLCeBT5gF2s8d5ap-2" target="AG6RHLCeBT5gF2s8d5ap-4">
          <mxGeometry relative="1" as="geometry" />
        </mxCell>
        <mxCell id="AG6RHLCeBT5gF2s8d5ap-11" value="TRL&amp;lt;=4" style="edgeLabel;html=1;align=center;verticalAlign=middle;resizable=0;points=[];" vertex="1" connectable="0" parent="AG6RHLCeBT5gF2s8d5ap-9">
          <mxGeometry x="0.0286" relative="1" as="geometry">
            <mxPoint as="offset" />
          </mxGeometry>
        </mxCell>
        <mxCell id="AG6RHLCeBT5gF2s8d5ap-10" style="edgeStyle=orthogonalEdgeStyle;rounded=0;orthogonalLoop=1;jettySize=auto;html=1;exitX=0.5;exitY=1;exitDx=0;exitDy=0;entryX=0;entryY=1;entryDx=0;entryDy=0;" edge="1" parent="1" source="AG6RHLCeBT5gF2s8d5ap-2" target="AG6RHLCeBT5gF2s8d5ap-5">
          <mxGeometry relative="1" as="geometry" />
        </mxCell>
        <mxCell id="AG6RHLCeBT5gF2s8d5ap-12" value="TRL&amp;gt;=5" style="edgeLabel;html=1;align=center;verticalAlign=middle;resizable=0;points=[];" vertex="1" connectable="0" parent="AG6RHLCeBT5gF2s8d5ap-10">
          <mxGeometry x="0.0571" y="3" relative="1" as="geometry">
            <mxPoint as="offset" />
          </mxGeometry>
        </mxCell>
        <mxCell id="AG6RHLCeBT5gF2s8d5ap-2" value="TRL Assessment" style="rhombus;whiteSpace=wrap;html=1;" vertex="1" parent="1">
          <mxGeometry x="270" y="200" width="130" height="120" as="geometry" />
        </mxCell>
        <mxCell id="AG6RHLCeBT5gF2s8d5ap-7" style="edgeStyle=orthogonalEdgeStyle;rounded=0;orthogonalLoop=1;jettySize=auto;html=1;exitX=1;exitY=0.5;exitDx=0;exitDy=0;entryX=0;entryY=0.5;entryDx=0;entryDy=0;" edge="1" parent="1" source="AG6RHLCeBT5gF2s8d5ap-4" target="AG6RHLCeBT5gF2s8d5ap-6">
          <mxGeometry relative="1" as="geometry" />
        </mxCell>
        <mxCell id="AG6RHLCeBT5gF2s8d5ap-4" value="3-Month Sprint" style="rounded=0;whiteSpace=wrap;html=1;" vertex="1" parent="1">
          <mxGeometry x="425" y="190" width="120" height="60" as="geometry" />
        </mxCell>
        <mxCell id="AG6RHLCeBT5gF2s8d5ap-5" value="12-Month Scale-up" style="rounded=0;whiteSpace=wrap;html=1;" vertex="1" parent="1">
          <mxGeometry x="425" y="270" width="120" height="60" as="geometry" />
        </mxCell>
        <mxCell id="AG6RHLCeBT5gF2s8d5ap-18" style="edgeStyle=orthogonalEdgeStyle;rounded=0;orthogonalLoop=1;jettySize=auto;html=1;exitX=0.5;exitY=0;exitDx=0;exitDy=0;entryX=0;entryY=0;entryDx=0;entryDy=0;" edge="1" parent="1" source="AG6RHLCeBT5gF2s8d5ap-6" target="AG6RHLCeBT5gF2s8d5ap-14">
          <mxGeometry relative="1" as="geometry" />
        </mxCell>
        <mxCell id="AG6RHLCeBT5gF2s8d5ap-19" style="edgeStyle=orthogonalEdgeStyle;rounded=0;orthogonalLoop=1;jettySize=auto;html=1;exitX=1;exitY=1;exitDx=0;exitDy=0;entryX=0;entryY=0.5;entryDx=0;entryDy=0;" edge="1" parent="1" source="AG6RHLCeBT5gF2s8d5ap-6" target="AG6RHLCeBT5gF2s8d5ap-15">
          <mxGeometry relative="1" as="geometry" />
        </mxCell>
        <mxCell id="AG6RHLCeBT5gF2s8d5ap-6" value="Whether" style="rhombus;whiteSpace=wrap;html=1;" vertex="1" parent="1">
          <mxGeometry x="570" y="180" width="80" height="80" as="geometry" />
        </mxCell>
        <mxCell id="AG6RHLCeBT5gF2s8d5ap-13" value="Industrialzation" style="rounded=0;whiteSpace=wrap;html=1;" vertex="1" parent="1">
          <mxGeometry x="570" y="270" width="120" height="60" as="geometry" />
        </mxCell>
        <mxCell id="AG6RHLCeBT5gF2s8d5ap-14" value="Acceleration" style="rounded=0;whiteSpace=wrap;html=1;" vertex="1" parent="1">
          <mxGeometry x="690" y="130" width="120" height="60" as="geometry" />
        </mxCell>
        <mxCell id="AG6RHLCeBT5gF2s8d5ap-15" value="Archival" style="rounded=0;whiteSpace=wrap;html=1;" vertex="1" parent="1">
          <mxGeometry x="690" y="200" width="120" height="60" as="geometry" />
        </mxCell>
      </root>
    </mxGraphModel>
  </diagram>
</mxfile>
